<svg width="162" height="36" viewBox="0 0 162 36" fill="none" xmlns="http://www.w3.org/2000/svg">
<path d="M43.0402 10.8701C40.6954 10.8701 38.7264 11.776 37.3511 13.2589V1.21269L33.5559 1.75326V19.1834C33.5559 24.3555 37.3887 27.8255 42.484 27.8255C47.5794 27.8255 51.6001 24.2094 51.6001 19.293C51.6001 14.3766 47.8049 10.8628 43.0402 10.8628V10.8701ZM42.5216 24.6112C39.4704 24.6112 37.2383 22.332 37.2383 19.4026C37.2383 16.4732 39.5831 14.0844 42.6344 14.0844C45.6856 14.0844 47.9176 16.3636 47.9176 19.3296C47.9176 22.2955 45.5728 24.6112 42.5216 24.6112ZM16.5111 14.961C15.7521 14.961 9.19873 18.1607 9.19873 18.1607L0.308119 12.8571C0.127752 13.741 0.0225459 14.6396 0 15.5455C0.202913 23.3985 4.80228 29.5422 12.5355 29.5422C20.2688 29.5422 24.3947 23.8295 25.0034 16.5463L22.2228 17.6494C22.2228 17.6494 17.2777 14.961 16.5186 14.961H16.5111ZM59.5363 5.99027L55.7786 7.97726V11.2646H53.8096L53.246 14.3766H55.7786V22.4416C55.7786 25.7362 57.7476 27.7232 61.137 27.7232C62.3245 27.7232 63.4442 27.4675 64.1131 27.1826V23.9975C63.557 24.2167 62.6251 24.4651 61.8435 24.4651C60.393 24.4651 59.5363 23.5958 59.5363 22.0763V14.3766H64.1131V11.2646H59.5363V5.98295V5.99027ZM12.498 0C7.56039 0 2.0141 5.56657 0.345698 11.9732L2.08173 12.0317L8.89812 16.0934L16.2631 14.004L22.2603 15.6477L24.9959 14.4497C24.4172 6.83037 18.1344 0 12.498 0ZM95.5196 10.8701C90.4994 10.8701 86.6665 14.5958 86.6665 19.3661C86.6665 24.1364 90.4618 27.8255 95.6699 27.8255C98.4581 27.8255 101.066 26.7808 103.11 24.9691L101.885 22.0397C99.9461 23.9902 97.8719 24.8596 95.7075 24.8596C93.3627 24.8596 91.6116 23.7346 90.7248 22.0763L103.599 18.0292C103.08 13.5438 99.7282 10.8701 95.5271 10.8701H95.5196ZM90.0935 19.22C90.2063 16.1445 92.5135 13.7995 95.5271 13.7995C97.3834 13.7995 98.9466 14.7054 99.653 16.1883L90.0935 19.2273V19.22ZM125.829 18.0292C125.829 20.6664 127.279 22.836 129.474 24.0706C129.211 24.2532 128.955 24.4651 128.692 24.6842L129.955 27.2118C130.887 26.1307 132.112 25.3344 133.75 25.3344C136.132 25.3344 137.883 26.9561 137.883 29.1623C137.883 31.3685 136.207 32.961 133.788 32.961C131.368 32.961 129.88 31.4415 129.504 29.0893L126.565 30.6088C127.309 33.8304 130.098 36 133.78 36C138.244 36 141.258 32.9245 141.258 29.2354C141.258 26.9562 140.1 25.0787 138.282 23.9172C140.401 22.6899 141.739 20.5568 141.739 18.0585C141.739 16.108 140.882 14.4059 139.507 13.2151L142.115 13.3977L142.633 10.4684L133.96 10.7971C128.865 11.0089 125.814 14.2305 125.814 18.0292H125.829ZM138.289 18.1023C138.289 20.4911 136.35 22.2955 133.788 22.2955C131.225 22.2955 129.323 20.4911 129.323 18.1023C129.323 15.7135 131.255 13.8726 133.788 13.8726C136.32 13.8726 138.289 15.7135 138.289 18.1023ZM76.6862 10.8701C74.5669 10.8701 72.8158 11.6664 71.6284 13.1128V1.21269L67.8708 1.75326V27.431H71.6284V18.2849C71.6284 15.75 73.2968 14.1283 75.6416 14.1283C77.7985 14.1283 79.2865 15.5016 79.2865 18.0292V27.431H83.0442V17.5909C83.0442 13.3977 80.4815 10.8628 76.6862 10.8628V10.8701ZM115.067 10.8701C110.047 10.8701 106.214 14.5958 106.214 19.3661C106.214 24.1364 110.009 27.8255 115.217 27.8255C118.005 27.8255 120.613 26.7808 122.657 24.9691L121.432 22.0397C119.493 23.9902 117.419 24.8596 115.255 24.8596C112.91 24.8596 111.159 23.7346 110.272 22.0763L123.146 18.0292C122.627 13.5438 119.275 10.8701 115.074 10.8701H115.067ZM109.633 19.22C109.746 16.1445 112.053 13.7995 115.067 13.7995C116.923 13.7995 118.486 14.7054 119.193 16.1883L109.633 19.2273V19.22ZM162 10.4684L153.327 10.7971C148.232 11.0089 145.181 14.2305 145.181 18.0292C145.181 20.6664 146.631 22.836 148.826 24.0706C148.563 24.2532 148.307 24.4651 148.044 24.6842L149.307 27.2118C150.239 26.1307 151.464 25.3344 153.102 25.3344C155.484 25.3344 157.235 26.9561 157.235 29.1623C157.235 31.3685 155.559 32.961 153.139 32.961C150.72 32.961 149.232 31.4415 148.856 29.0893L145.917 30.6088C146.661 33.8304 149.449 36 153.132 36C157.596 36 160.61 32.9245 160.61 29.2354C160.61 26.9562 159.452 25.0787 157.634 23.9172C159.753 22.6899 161.091 20.5568 161.091 18.0585C161.091 16.108 160.234 14.4059 158.859 13.2151L161.466 13.3977L161.985 10.4684H162ZM153.147 22.2955C150.614 22.2955 148.683 20.4911 148.683 18.1023C148.683 15.7135 150.614 13.8726 153.147 13.8726C155.68 13.8726 157.649 15.7135 157.649 18.1023C157.649 20.4911 155.71 22.2955 153.147 22.2955Z" fill="url(#paint0_linear_23_345)"/>
<defs>
<linearGradient id="paint0_linear_23_345" x1="0" y1="18" x2="162" y2="18" gradientUnits="userSpaceOnUse">
<stop offset="0.0001" stop-color="#C7B5FD"/>
<stop offset="0.485" stop-color="#5D0491"/>
<stop offset="1" stop-color="#1A2488"/>
</linearGradient>
</defs>
</svg>
